<svg width="1755" height="1100" viewBox="0 0 1755 1100" fill="none" xmlns="http://www.w3.org/2000/svg">
<path d="M112.099 598.67L13.6836 498.672L47.5566 434.246L311.299 451.724C312.233 451.786 312.578 452.981 311.821 453.531L112.099 598.67ZM112.099 598.67L281.785 771.137L581.621 800.439C582.76 800.551 583.163 798.972 582.109 798.524L112.099 598.67ZM20.4101 496.599L314.247 452M282.374 772L425.685 851.732M425.685 851.732L453.151 936.97M425.685 851.732C425.685 851.732 425.765 851.815 507.044 829.262C588.323 806.708 589.444 809.196 589.444 809.196L500.718 879.343M425.685 851.732L500.718 879.343M453.151 936.97C453.151 936.97 517.694 1021.3 534.591 1024.7C551.567 1028.01 508.806 1010.52 500.718 879.343M453.151 936.97L500.718 879.343M125.552 594.524L563.098 724.372L634.608 659.448M634.608 659.448L334.53 585M634.608 659.448L741.352 499.667M499.888 877.569L641.851 895.476L770.741 1024.59L854.475 1088.1L960.908 1074.46L854.475 949.447V895.476L751.837 802.546L1145.11 751.114C1146.33 750.954 1146.7 752.711 1145.52 753.063L1037.18 785.442M1037.18 785.442L815.818 852.685C814.717 853.019 814.958 854.642 816.108 854.642H929.708L1037.18 785.442ZM748.609 807.558L1018.63 502.838M748.609 807.558L634.177 657.81L459.127 479.29L1018.63 502.838M748.609 807.558L642.672 892.699C642.165 893.106 641.411 892.93 641.138 892.34L562.588 722.816M1018.63 502.838L1145.27 752.39C1145.57 752.984 1146.36 753.123 1146.85 752.667L1541.54 382.526C1541.54 382.526 1504.22 322.826 1500.22 271.5L1433.6 391.895L1018.63 502.838ZM811.02 860.687L777.867 1030.09M854.649 948V1088M1270.03 437.314L1293.41 617.243M1430.34 394.445L1485.68 436.899L1511.86 321.064M1434.11 393.451L1497.61 384.33M1538 379L1624.33 485.419M1561.99 409.371L1700.05 446.849M264.988 441.5C278.041 395.896 336.318 209.541 500.638 100.174M500.638 100.174C533.309 78.4494 651.424 4.90209 803.813 11.0379C1014.5 19.5784 1213.17 184.169 1311.5 417M500.638 100.174C827.596 231.928 1052.65 382 1052.65 382M383.79 464.5C383.79 464.5 551.567 326.371 772.903 223.803M1045.17 88.8969C1045.17 88.8969 1068.15 413.848 1048.61 496.599M504.722 480.928L520.097 365.922M570.684 439.5L459.558 480.928M596.28 487L559.094 436M1482 432L1615.5 481L1696.5 447.5L1727 413.5L1635 429M459.127 481L168.402 586H337.637L459.127 481ZM312.316 452C451.091 483.011 459.558 480.845 459.558 480.845L312.316 452ZM589.519 801L679.344 717.478L631.973 659L589.519 801Z" stroke="white" stroke-width="21"/>
</svg>
